<?xml version="1.0" ?><svg id="Layer_1" style="enable-background:new 0 0 128 128;" version="1.1" viewBox="0 0 128 128" xml:space="preserve" xmlns="http://www.w3.org/2000/svg" xmlns:xlink="http://www.w3.org/1999/xlink"><style type="text/css">
	.st0{display:none;fill:#D6D5BD;}
	.st1{fill:#FFFFFF;}
	.st2{fill:#E4E8ED;}
	.st3{fill:#444B54;}
	.st4{fill:#FE4365;}
	.st5{fill:#5BF979;}
	.st6{fill:#006475;}
	.st7{fill:#00B1FE;}
	.st8{opacity:0.5;}
	.st9{fill:#FFB480;}
	.st10{fill:#FF8B80;}
	.st11{fill:#70F0FF;}
	.st12{fill:#00BED9;}
	.st13{fill:#FF2A66;}
	.st14{fill:#A3B859;}
	.st15{fill:#64AD50;}
	.st16{fill:#FF5366;}
	.st17{fill:#BBB798;}
	.st18{fill:#79B9AF;}
	.st19{fill:#39BCC5;}
</style><g><g><circle class="st9" cx="64" cy="63" r="60"/></g><g><path class="st3" d="M53,55c-1.7,0-3-1.3-3-3c0-5.3-2.6-9-5-9s-5,3.7-5,9c0,1.7-1.3,3-3,3s-3-1.3-3-3c0-8.4,4.8-15,11-15    s11,6.6,11,15C56,53.7,54.7,55,53,55z"/></g><g><path class="st3" d="M91,55c-1.7,0-3-1.3-3-3c0-5.3-2.6-9-5-9s-5,3.7-5,9c0,1.7-1.3,3-3,3s-3-1.3-3-3c0-8.4,4.8-15,11-15    s11,6.6,11,15C94,53.7,92.7,55,91,55z"/></g><g><path class="st1" d="M34.7,25.9c-0.9,0-1.9-0.4-2.5-1.3c-0.9-1.4-0.6-3.2,0.7-4.2c9.1-6.4,19.9-9.8,31-9.8c1.7,0,3,1.3,3,3    s-1.3,3-3,3c-9.9,0-19.5,3-27.6,8.7C35.9,25.7,35.3,25.9,34.7,25.9z"/></g><g><path class="st1" d="M22.3,38.1c-0.6,0-1.2-0.2-1.7-0.6c-1.3-1-1.7-2.8-0.7-4.2c0.5-0.7,1-1.4,1.5-2c1-1.3,2.9-1.5,4.2-0.5    c1.3,1,1.5,2.9,0.5,4.2c-0.5,0.6-0.9,1.2-1.4,1.8C24.2,37.7,23.3,38.1,22.3,38.1z"/></g><g><path class="st4" d="M117.4,105.4L117.4,105.4c-5.1,6.5-14.5,7.7-21.1,2.6l-11.8-9.2L103,75.2l11.8,9.2    C121.3,89.5,122.5,98.9,117.4,105.4z"/></g><g><path class="st3" d="M64,106c-19,0-35.9-12.7-41.3-30.9c-0.5-1.6,0.4-3.3,2-3.7c1.6-0.5,3.3,0.4,3.7,2C33.1,89.1,47.7,100,64,100    c16.3,0,30.9-10.9,35.5-26.6c0.5-1.6,2.1-2.5,3.7-2c1.6,0.5,2.5,2.1,2,3.7C99.9,93.3,83,106,64,106z"/></g></g></svg>